<?xml version="1.0" encoding="utf-8"?>
<?xml-stylesheet type="text/xsl" href="rss1.xsl"?>
<rss version="2.0" xmlns:atom="http://www.w3.org/2005/Atom" xmlns:content="http://purl.org/rss/1.0/modules/content/" xmlns:dc="http://purl.org/dc/elements/1.1/" xmlns:media="http://search.yahoo.com/mrss/">
<channel>
 <title>Getty</title>
 <link>http://www.gettyimg.com/</link>
 <atom:link href="http://www.gettyimg.com/" rel="self" type="application/rss+xml" />

 
                <item>
                <title><![CDATA[【HD Live Performances】FEED - Shania Twain - Live @ Glastonbury 2024 FEED HDTV H264 1080i 422 MP2-ilya2129]]></title>
                <link><![CDATA[https://sharemania.us/threads/shania-twain-live-glastonbury-2024-feed-hdtv-h264-1080i-422-mp2-ilya2129.249023/]]></link>
                <description><![CDATA[<article>
<blockquote class="messageText SelectQuoteContainer ugc baseHtml">
<div style="text-align: center"><img src="https://i122.fastpic.org/big/2023/0623/b4/b37c6294354538a70aac338bdf3af5b4.png?r=1" class="bbCodeImage LbImage" alt="[​IMG]" data-url="https://i122.fastpic.org/big/2023/0623/b4/b37c6294354538a70aac338bdf3af5b4.png?r=1" style=""><br>
<br>
<a href="https://fastpic.org/view/123/2024/0707/_8c564f5581b008908f282a85cfc85f34.png.html" target="_blank" class="externalLink" rel="nofollow"><img src="https://i123.fastpic.org/thumb/2024/0707/34/_8c564f5581b008908f282a85cfc85f34.jpeg" class="bbCodeImage LbImage" alt="[​IMG]" data-url="https://i123.fastpic.org/thumb/2024/0707/34/_8c564f5581b008908f282a85cfc85f34.jpeg"></a> <a href="https://fastpic.org/view/123/2024/0707/_56708c043792eeef2c4f3a2063f70595.png.html" target="_blank" class="externalLink" rel="nofollow"><img src="https://i123.fastpic.org/thumb/2024/0707/95/_56708c043792eeef2c4f3a2063f70595.jpeg" class="bbCodeImage LbImage" alt="[​IMG]" data-url="https://i123.fastpic.org/thumb/2024/0707/95/_56708c043792eeef2c4f3a2063f70595.jpeg"></a> <a href="https://fastpic.org/view/123/2024/0707/_eaee0dfcd36408c1554dc7244870cb78.png.html" target="_blank" class="externalLink" rel="nofollow"><img src="https://i123.fastpic.org/thumb/2024/0707/78/_eaee0dfcd36408c1554dc7244870cb78.jpeg" class="bbCodeImage LbImage" alt="[​IMG]" data-url="https://i123.fastpic.org/thumb/2024/0707/78/_eaee0dfcd36408c1554dc7244870cb78.jpeg"></a><br>
<br>
<i><br>
That Don't Impress Me Much<br>
Don't Be Stupid (You Know I Love You)<br>
You Win My Love<br>
Up!<br>
I'm Gonna Getcha Good!<br>
You're Still the One<br>
Forever and for Always<br>
Come on Over<br>
Any Man of Mine<br>
Giddy Up!<br>
Whose Bed Have Your Boots Been Under?<br>
Honey, I'm Home<br>
From This Moment On<br>
(If You're Not in It for Love) I'm Outta Here!<br>
Man! I Feel Like a Woman!<br>
</i><br>
​</div><br>
<div class="bbCodeBlock bbCodeCode">
<div class="type">Code:</div>
<pre>General
ID                                       : 1 (0x1)
Complete name                            : C:\Recordings\Glasto 2024\Shania Twain - Live @ Glastonbury 2024 FEED HDTV H264 1080i 422 MP2-ilya2129.ts
Format                                   : MPEG-TS
File size                                : 17.4 GiB
Duration                                 : 1 h 16 min
Overall bit rate mode                    : Variable
Overall bit rate                         : 32.4 Mb/s
Frame rate                               : 25.000 FPS

Video
ID                                       : 501 (0x1F5)
Menu ID                                  : 1 (0x1)
Format                                   : AVC
Format/Info                              : Advanced Video Codec
Format profile                           : High 4:2:2@L4.1
Format settings                          : CABAC / 4 Ref Frames
Format settings, CABAC                   : Yes
Format settings, Reference frames        : 4 frames
Codec ID                                 : 27
Duration                                 : 1 h 16 min
Bit rate                                 : 30.4 Mb/s
Width                                    : 1 920 pixels
Height                                   : 1 080 pixels
Display aspect ratio                     : 16:9
Active Format Description                : Full frame 16:9 image
Frame rate                               : 25.000 FPS
Color space                              : YUV
Chroma subsampling                       : 4:2:2
Bit depth                                : 10 bits
Scan type                                : Interlaced
Scan type, store method                  : Separated fields
Scan order                               : Top Field First
Bits/(Pixel*Frame)                       : 0.586
Stream size                              : 16.3 GiB (94%)
Color range                              : Limited
Color primaries                          : BT.709
Transfer characteristics                 : BT.709
Matrix coefficients                      : BT.709

Audio
ID                                       : 4112 (0x1010)
Menu ID                                  : 1 (0x1)
Format                                   : MPEG Audio
Format version                           : Version 1
Format profile                           : Layer 2
Codec ID                                 : 4
Duration                                 : 1 h 16 min
Bit rate mode                            : Constant
Bit rate                                 : 384 kb/s
Channel(s)                               : 2 channels
Sampling rate                            : 48.0 kHz
Frame rate                               : 41.667 FPS (1152 SPF)
Compression mode                         : Lossy
Delay relative to video                  : 109 ms
Stream size                              : 211 MiB (1%)
Language                                 : English
</pre>
</div>
<div class="bbCodeBlock bbCodeVfcHH HiddenContent">
<div class="attribution type">Hidden Content:</div>
<blockquote>You must reply before you can see the hidden data contained here.</blockquote>
</div>
<div class="messageTextEndMarker">&nbsp;</div>
</blockquote>
</article>]]></description>
                <author><![CDATA[ilya2129]]></author>
                </item>

                
                <item>
                <title><![CDATA[【Apple Music】WEB-RiP - Armin van Buuren feat. Duncan Laurence - Feel Something (1080p)]]></title>
                <link><![CDATA[https://sharemania.us/threads/armin-van-buuren-feat-duncan-laurence-feel-something-1080p.249015/]]></link>
                <description><![CDATA[<article>
<blockquote class="messageText SelectQuoteContainer ugc baseHtml">
<img src="https://i.postimg.cc/3wQfYg5X/Armin-van-Buuren-feat-Duncan-Laurence-Feel-Something-mp4.jpg" class="bbCodeImage LbImage" alt="[​IMG]" data-url="https://i.postimg.cc/3wQfYg5X/Armin-van-Buuren-feat-Duncan-Laurence-Feel-Something-mp4.jpg" style=""><br>
<br>
<div class="bbCodeBlock bbCodeCode">
<div class="type">Code:</div>
<pre>General
Complete name                  : G:\Новая папка\Armin van Buuren feat. Duncan Laurence - Feel Something.mp4
Format                         : MPEG-4
Format profile                 : Base Media
Codec ID                       : isom (isom/iso2/avc1/mp41)
File size                      : 197 MiB
Duration                       : 2 min 45 s
Overall bit rate               : 9 975 kb/s
Frame rate                     : 25.000 FPS
Movie name                     : Feel Something (feat. Duncan Laurence)
Performer                      : Armin van Buuren
Genre                          : Dance
ContentType                    : Music Video
Recorded date                  : 2020-12-05 08:00:00 UTC
Writing application            : Lavf56.30.100
Copyright                      : ℗ 2020 Armada Music B.V.

Video
ID                             : 1
Format                         : AVC
Format/Info                    : Advanced Video Codec
Format profile                 : High@L4.1
Format settings                : CABAC / 4 Ref Frames
Format settings, CABAC         : Yes
Format settings, Reference fra : 4 frames
Format settings, Slice count   : 8 slices per frame
Codec ID                       : avc1
Codec ID/Info                  : Advanced Video Coding
Duration                       : 2 min 45 s
Bit rate                       : 9 718 kb/s
Width                          : 1 920 pixels
Height                         : 1 080 pixels
Display aspect ratio           : 16:9
Frame rate mode                : Constant
Frame rate                     : 25.000 FPS
Color space                    : YUV
Chroma subsampling             : 4:2:0
Bit depth                      : 8 bits
Scan type                      : Progressive
Bits/(Pixel*Frame)             : 0.187
Stream size                    : 192 MiB (97%)
Color range                    : Limited
Color primaries                : BT.709
Transfer characteristics       : BT.709
Matrix coefficients            : BT.709
Codec configuration box        : avcC

Audio
ID                             : 2
Format                         : AAC LC
Format/Info                    : Advanced Audio Codec Low Complexity
Codec ID                       : mp4a-40-2
Duration                       : 2 min 45 s
Duration_LastFrame             : -9 ms
Bit rate mode                  : Constant
Bit rate                       : 254 kb/s
Channel(s)                     : 2 channels
Channel layout                 : L R
Sampling rate                  : 48.0 kHz
Frame rate                     : 46.875 FPS (1024 SPF)
Compression mode               : Lossy
Stream size                    : 5.03 MiB (3%)
Default                        : Yes
Alternate group                : 1

</pre>
</div>
<div class="bbCodeBlock bbCodeVfcHH HiddenContent">
<div class="attribution type">Hidden Content:</div>
<blockquote>You must either reply or click 'Like' to see the hidden information contained here.</blockquote>
</div>
<div class="messageTextEndMarker">&nbsp;</div>
</blockquote>
</article>]]></description>
                <author><![CDATA[vitalya3]]></author>
                </item>

                
                <item>
                <title><![CDATA[【HD Live Performances】[REQ VID] Extreme Rock in Rio Lisboa 2024]]></title>
                <link><![CDATA[https://sharemania.us/threads/req-vid-extreme-rock-in-rio-lisboa-2024.249014/]]></link>
                <description><![CDATA[<article>
<blockquote class="messageText SelectQuoteContainer ugc baseHtml">
Someone recorded extreme's concert live in rock in rio lisboa 2024?
<div class="messageTextEndMarker">&nbsp;</div>
</blockquote>
</article>]]></description>
                <author><![CDATA[bruniinha_a]]></author>
                </item>

                
                <item>
                <title><![CDATA[【Albums (lossless)】FLAC - Changing Faces - All Day, All Night (Japanese Edition)]]></title>
                <link><![CDATA[https://sharemania.us/threads/changing-faces-all-day-all-night-japanese-edition.249022/]]></link>
                <description><![CDATA[<article>
<blockquote class="messageText SelectQuoteContainer ugc baseHtml">
<div style="text-align: center"><img src="https://i.imgur.com/fmKog6w.jpeg" class="bbCodeImage LbImage" alt="[​IMG]" data-url="https://i.imgur.com/fmKog6w.jpeg" style=""><br>
<br>
<span style="font-family: 'Verdana'"><span style="font-size: 12px">1. Intro<br>
2. G.H.E.T.T.O.U.T.<br>
3. My Lovely<br>
4. Thinkin' About You<br>
5. I Apologize<br>
6. Time After Time<br>
7. All of My Days<br>
8. All Day, All Night<br>
9. G.H.E.T.T.O.U.T. Part II<br>
10 My Heart Can't Take Much More<br>
11. I Got Somebody Else<br>
12. Goin' Nowhere<br>
13. No Stoppin' This Groove<br>
14. All That<br>
15. Baby Tonight<br>
16. I Got Somebody Else (All Star Remix) <span style="color: rgb(179, 0, 0)">*</span></span></span><br>
<b><span style="font-family: 'Verdana'"><span style="font-size: 12px"><span style="color: #b30000"><br>
* Japan Bonus Track</span><br>
<br>
<span style="color: #000000">As requested by <a href="https://sharemania.us/members/214311/" class="username" data-user="214311, @One&amp;Only">@One&amp;Only</a> </span><br>
<br>
<div class="bbCodeBlock bbCodeVfcHH HiddenContent">
<div class="attribution type">Hidden Content:</div>
<blockquote>You must reply before you can see the hidden data contained here.</blockquote>
</div></span></span></b>​</div>
<div class="messageTextEndMarker">&nbsp;</div>
</blockquote>
</article>]]></description>
                <author><![CDATA[OhSnapItzTrey]]></author>
                </item>

                
                <item>
                <title><![CDATA[【HD Live Performances】FEED - Paloma Faith - Live @ Glastonbury 2024 FEED HDTV H264 1080i 422 MP2-ilya2129]]></title>
                <link><![CDATA[https://sharemania.us/threads/paloma-faith-live-glastonbury-2024-feed-hdtv-h264-1080i-422-mp2-ilya2129.249018/]]></link>
                <description><![CDATA[<article>
<blockquote class="messageText SelectQuoteContainer ugc baseHtml">
<div style="text-align: center"><img src="https://i122.fastpic.org/big/2023/0623/b4/b37c6294354538a70aac338bdf3af5b4.png?r=1" class="bbCodeImage LbImage" alt="[​IMG]" data-url="https://i122.fastpic.org/big/2023/0623/b4/b37c6294354538a70aac338bdf3af5b4.png?r=1" style=""><br>
<br>
<a href="https://fastpic.org/view/123/2024/0706/_ce2e270f0bba1bd117bb4c1fc65a9cff.png.html" target="_blank" class="externalLink" rel="nofollow"><img src="https://i123.fastpic.org/thumb/2024/0706/ff/_ce2e270f0bba1bd117bb4c1fc65a9cff.jpeg" class="bbCodeImage LbImage" alt="[​IMG]" data-url="https://i123.fastpic.org/thumb/2024/0706/ff/_ce2e270f0bba1bd117bb4c1fc65a9cff.jpeg"></a> <a href="https://fastpic.org/view/123/2024/0706/_31498debd28d175e692d3fcdb02701d7.png.html" target="_blank" class="externalLink" rel="nofollow"><img src="https://i123.fastpic.org/thumb/2024/0706/d7/_31498debd28d175e692d3fcdb02701d7.jpeg" class="bbCodeImage LbImage" alt="[​IMG]" data-url="https://i123.fastpic.org/thumb/2024/0706/d7/_31498debd28d175e692d3fcdb02701d7.jpeg"></a> <a href="https://fastpic.org/view/123/2024/0706/_d11732720625f8a909c84f3ada0d469c.png.html" target="_blank" class="externalLink" rel="nofollow"><img src="https://i123.fastpic.org/thumb/2024/0706/9c/_d11732720625f8a909c84f3ada0d469c.jpeg" class="bbCodeImage LbImage" alt="[​IMG]" data-url="https://i123.fastpic.org/thumb/2024/0706/9c/_d11732720625f8a909c84f3ada0d469c.jpeg"></a><br>
<br>
<i><br>
There's Nothing More Human Than Failure<br>
How You Leave a Man<br>
Bad Woman<br>
Stone Cold Sober<br>
Picking Up the Pieces<br>
God in a Dress<br>
Make Your Own Kind of Music<br>
Back to Black<br>
Let It Ride<br>
Sweatpants<br>
Upside Down<br>
Can't Rely on You<br>
Cry on the Dance Floor<br>
Lullaby<br>
Changing<br>
Only Love Can Hurt Like This<br>
</i><br>
​</div><br>
<div class="bbCodeBlock bbCodeCode">
<div class="type">Code:</div>
<pre>General
ID                                       : 1 (0x1)
Complete name                            : C:\Recordings\Glasto 2024\Paloma Faith - Live @ Glastonbury 2024 FEED HDTV H264 1080i 422 MP2-ilya2129.ts
Format                                   : MPEG-TS
File size                                : 12.6 GiB
Duration                                 : 55 min 56 s
Overall bit rate mode                    : Variable
Overall bit rate                         : 32.2 Mb/s
Frame rate                               : 25.000 FPS

Video
ID                                       : 256 (0x100)
Menu ID                                  : 1 (0x1)
Format                                   : AVC
Format/Info                              : Advanced Video Codec
Format profile                           : High 4:2:2@L4.1
Format settings                          : CABAC / 4 Ref Frames
Format settings, CABAC                   : Yes
Format settings, Reference frames        : 4 frames
Codec ID                                 : 27
Duration                                 : 55 min 56 s
Bit rate                                 : 30.2 Mb/s
Width                                    : 1 920 pixels
Height                                   : 1 080 pixels
Display aspect ratio                     : 16:9
Active Format Description                : Full frame 16:9 image
Frame rate                               : 25.000 FPS
Color space                              : YUV
Chroma subsampling                       : 4:2:2
Bit depth                                : 10 bits
Scan type                                : Interlaced
Scan type, store method                  : Separated fields
Scan order                               : Top Field First
Bits/(Pixel*Frame)                       : 0.583
Stream size                              : 11.8 GiB (94%)
Color range                              : Limited
Color primaries                          : BT.709
Transfer characteristics                 : BT.709
Matrix coefficients                      : BT.709

Audio
ID                                       : 257 (0x101)
Menu ID                                  : 1 (0x1)
Format                                   : MPEG Audio
Format version                           : Version 1
Format profile                           : Layer 2
Codec ID                                 : 3
Duration                                 : 55 min 56 s
Bit rate mode                            : Constant
Bit rate                                 : 384 kb/s
Channel(s)                               : 2 channels
Sampling rate                            : 48.0 kHz
Frame rate                               : 41.667 FPS (1152 SPF)
Compression mode                         : Lossy
Delay relative to video                  : 2 ms
Stream size                              : 154 MiB (1%)
Language                                 : one



</pre>
</div>
<div class="bbCodeBlock bbCodeVfcHH HiddenContent">
<div class="attribution type">Hidden Content:</div>
<blockquote>You must reply before you can see the hidden data contained here.</blockquote>
</div>
<div class="messageTextEndMarker">&nbsp;</div>
</blockquote>
</article>]]></description>
                <author><![CDATA[ilya2129]]></author>
                </item>

                
                <item>
                <title><![CDATA[【Apple Music】WEB-RiP - Cristina Vasiu - Sa te iubesc un pic (feat. J. Yolo) (1080p)]]></title>
                <link><![CDATA[https://sharemania.us/threads/cristina-vasiu-sa-te-iubesc-un-pic-feat-j-yolo-1080p.249017/]]></link>
                <description><![CDATA[<article>
<blockquote class="messageText SelectQuoteContainer ugc baseHtml">
<img src="https://i.postimg.cc/Nj6SyNxJ/Cristina-Vasiu-Sa-te-iubesc-un-pic-feat-J-Yolo-mp4.jpg" class="bbCodeImage LbImage" alt="[​IMG]" data-url="https://i.postimg.cc/Nj6SyNxJ/Cristina-Vasiu-Sa-te-iubesc-un-pic-feat-J-Yolo-mp4.jpg" style=""><br>
<br>
<div class="bbCodeBlock bbCodeCode">
<div class="type">Code:</div>
<pre>General
Complete name                  : G:\Новая папка\Cristina Vasiu - Sa te iubesc un pic (feat. J. Yolo).mp4
Format                         : MPEG-4
Format profile                 : Base Media
Codec ID                       : isom (isom/iso2/avc1/mp41)
File size                      : 157 MiB
Duration                       : 3 min 10 s
Overall bit rate               : 6 912 kb/s
Frame rate                     : 25.000 FPS
Movie name                     : Sa te iubesc un pic (feat. J. Yolo)
Performer                      : Cristina Vasiu
Genre                          : Pop
ContentType                    : Music Video
Recorded date                  : 2021-10-07 07:00:00 UTC
Writing application            : Lavf56.30.100
Copyright                      : ℗ 2017 Cat Music

Video
ID                             : 1
Format                         : AVC
Format/Info                    : Advanced Video Codec
Format profile                 : High@L4
Format settings                : CABAC / 5 Ref Frames
Format settings, CABAC         : Yes
Format settings, Reference fra : 5 frames
Format settings, Slice count   : 8 slices per frame
Codec ID                       : avc1
Codec ID/Info                  : Advanced Video Coding
Duration                       : 3 min 10 s
Bit rate                       : 6 647 kb/s
Width                          : 1 920 pixels
Height                         : 720 pixels
Display aspect ratio           : 2.667
Frame rate mode                : Constant
Frame rate                     : 25.000 FPS
Color space                    : YUV
Chroma subsampling             : 4:2:0
Bit depth                      : 8 bits
Scan type                      : Progressive
Bits/(Pixel*Frame)             : 0.192
Stream size                    : 151 MiB (96%)
Color range                    : Limited
Color primaries                : BT.709
Transfer characteristics       : BT.709
Matrix coefficients            : BT.709
Codec configuration box        : avcC

Audio
ID                             : 2
Format                         : AAC LC
Format/Info                    : Advanced Audio Codec Low Complexity
Codec ID                       : mp4a-40-2
Duration                       : 3 min 10 s
Duration_LastFrame             : -17 ms
Bit rate mode                  : Constant
Bit rate                       : 265 kb/s
Channel(s)                     : 2 channels
Channel layout                 : L R
Sampling rate                  : 48.0 kHz
Frame rate                     : 46.875 FPS (1024 SPF)
Compression mode               : Lossy
Stream size                    : 5.91 MiB (4%)
Default                        : Yes
Alternate group                : 1

</pre>
</div>
<div class="bbCodeBlock bbCodeVfcHH HiddenContent">
<div class="attribution type">Hidden Content:</div>
<blockquote>You must either reply or click 'Like' to see the hidden information contained here.</blockquote>
</div>
<div class="messageTextEndMarker">&nbsp;</div>
</blockquote>
</article>]]></description>
                <author><![CDATA[vitalya3]]></author>
                </item>

                
                <item>
                <title><![CDATA[【HD Live Performances】FEED - Justice - Live @ Glastonbury 2024 FEED HDTV H264 1080i 422 MP2-ilya2129]]></title>
                <link><![CDATA[https://sharemania.us/threads/justice-live-glastonbury-2024-feed-hdtv-h264-1080i-422-mp2-ilya2129.249020/]]></link>
                <description><![CDATA[<article>
<blockquote class="messageText SelectQuoteContainer ugc baseHtml">
<div style="text-align: center"><img src="https://i122.fastpic.org/big/2023/0623/b4/b37c6294354538a70aac338bdf3af5b4.png?r=1" class="bbCodeImage LbImage" alt="[​IMG]" data-url="https://i122.fastpic.org/big/2023/0623/b4/b37c6294354538a70aac338bdf3af5b4.png?r=1" style=""><br>
<br>
<a href="https://fastpic.org/view/123/2024/0707/_a6e6f6489cf01a38e6c7b6ab3d04f97f.png.html" target="_blank" class="externalLink" rel="nofollow"><img src="https://i123.fastpic.org/thumb/2024/0707/7f/_a6e6f6489cf01a38e6c7b6ab3d04f97f.jpeg" class="bbCodeImage LbImage" alt="[​IMG]" data-url="https://i123.fastpic.org/thumb/2024/0707/7f/_a6e6f6489cf01a38e6c7b6ab3d04f97f.jpeg"></a> <a href="https://fastpic.org/view/123/2024/0707/_78eb2d84cdd57597acf0ec68678f9b6c.png.html" target="_blank" class="externalLink" rel="nofollow"><img src="https://i123.fastpic.org/thumb/2024/0707/6c/_78eb2d84cdd57597acf0ec68678f9b6c.jpeg" class="bbCodeImage LbImage" alt="[​IMG]" data-url="https://i123.fastpic.org/thumb/2024/0707/6c/_78eb2d84cdd57597acf0ec68678f9b6c.jpeg"></a> <a href="https://fastpic.org/view/123/2024/0707/_e9b1e90f0ba066d0c322288135586315.png.html" target="_blank" class="externalLink" rel="nofollow"><img src="https://i123.fastpic.org/thumb/2024/0707/15/_e9b1e90f0ba066d0c322288135586315.jpeg" class="bbCodeImage LbImage" alt="[​IMG]" data-url="https://i123.fastpic.org/thumb/2024/0707/15/_e9b1e90f0ba066d0c322288135586315.jpeg"></a><br>
<br>
<i><br>
Genesis / Phantom / Phantom Pt. II (Soulwax Remix)<br>
Generator / Love S.O.S.<br>
Alakazam! / Mannequin Love / We Are Your Friends / TTHHEE PPAARRTTYY<br>
One Night/All Night / D.A.N.C.E.<br>
Safe and Sound / Neverender<br>
Canon / Neverender<br>
Incognito<br>
Stress / Waters of Nazareth / Afterimage<br>
Chorus (WWW)<br>
Audio, Video, Disco (WWW)<br>
D.A.N.C.E. (Live Version) / Safe and Sound / Neverender<br>
</i><br>
​</div><br>
<div class="bbCodeBlock bbCodeCode">
<div class="type">Code:</div>
<pre>General
ID                                       : 1 (0x1)
Complete name                            : C:\Recordings\Glasto 2024\Justice - Live @ Glastonbury 2024 FEED HDTV H264 1080i 422 MP2-ilya2129.ts
Format                                   : MPEG-TS
File size                                : 14.9 GiB
Duration                                 : 1 h 13 min
Overall bit rate mode                    : Variable
Overall bit rate                         : 29.0 Mb/s
Frame rate                               : 25.000 FPS

Video
ID                                       : 256 (0x100)
Menu ID                                  : 1 (0x1)
Format                                   : AVC
Format/Info                              : Advanced Video Codec
Format profile                           : High 4:2:2@L4.1
Format settings                          : CABAC / 4 Ref Frames
Format settings, CABAC                   : Yes
Format settings, Reference frames        : 4 frames
Codec ID                                 : 27
Duration                                 : 1 h 13 min
Bit rate                                 : 27.2 Mb/s
Width                                    : 1 920 pixels
Height                                   : 1 080 pixels
Display aspect ratio                     : 16:9
Active Format Description                : Full frame 16:9 image
Frame rate                               : 25.000 FPS
Color space                              : YUV
Chroma subsampling                       : 4:2:2
Bit depth                                : 10 bits
Scan type                                : Interlaced
Scan type, store method                  : Separated fields
Scan order                               : Top Field First
Bits/(Pixel*Frame)                       : 0.525
Stream size                              : 14.0 GiB (94%)
Color range                              : Limited
Color primaries                          : BT.709
Transfer characteristics                 : BT.709
Matrix coefficients                      : BT.709

Audio
ID                                       : 257 (0x101)
Menu ID                                  : 1 (0x1)
Format                                   : MPEG Audio
Format version                           : Version 1
Format profile                           : Layer 2
Codec ID                                 : 3
Duration                                 : 1 h 13 min
Bit rate mode                            : Constant
Bit rate                                 : 384 kb/s
Channel(s)                               : 2 channels
Sampling rate                            : 48.0 kHz
Frame rate                               : 41.667 FPS (1152 SPF)
Compression mode                         : Lossy
Delay relative to video                  : 2 ms
Stream size                              : 202 MiB (1%)
Language                                 : one


</pre>
</div>
<div class="bbCodeBlock bbCodeVfcHH HiddenContent">
<div class="attribution type">Hidden Content:</div>
<blockquote>You must reply before you can see the hidden data contained here.</blockquote>
</div>
<div class="messageTextEndMarker">&nbsp;</div>
</blockquote>
</article>]]></description>
                <author><![CDATA[ilya2129]]></author>
                </item>

                
                <item>
                <title><![CDATA[【HD Live Performances】FEED - Brittany Hovard - Live @ Glastonbury 2024 FEED HDTV H264 1080i 422 MP2-ilya2129]]></title>
                <link><![CDATA[https://sharemania.us/threads/brittany-hovard-live-glastonbury-2024-feed-hdtv-h264-1080i-422-mp2-ilya2129.249019/]]></link>
                <description><![CDATA[<article>
<blockquote class="messageText SelectQuoteContainer ugc baseHtml">
<div style="text-align: center"><img src="https://i122.fastpic.org/big/2023/0623/b4/b37c6294354538a70aac338bdf3af5b4.png?r=1" class="bbCodeImage LbImage" alt="[​IMG]" data-url="https://i122.fastpic.org/big/2023/0623/b4/b37c6294354538a70aac338bdf3af5b4.png?r=1" style=""><br>
<br>
<i><br>
Earth Sign<br>
I Don't<br>
He Loves Me<br>
Patience<br>
Stay High<br>
Red Flags<br>
Baby<br>
Georgia<br>
Goat Head<br>
Prove It to You<br>
13th Century Metal<br>
Power to Undo<br>
Another Day<br>
What Now<br>
</i><br>
​</div><br>
<div class="bbCodeBlock bbCodeCode">
<div class="type">Code:</div>
<pre>General
ID                                       : 1 (0x1)
Complete name                            : C:\Recordings\Glasto 2024\Brittany Hovard - Live @ Glastonbury 2024 FEED HDTV H264 1080i 422 MP2-ilya2129.ts
Format                                   : MPEG-TS
File size                                : 10.1 GiB
Duration                                 : 44 min 38 s
Overall bit rate mode                    : Variable
Overall bit rate                         : 32.4 Mb/s
Frame rate                               : 25.000 FPS

Video
ID                                       : 256 (0x100)
Menu ID                                  : 1 (0x1)
Format                                   : AVC
Format/Info                              : Advanced Video Codec
Format profile                           : High 4:2:2@L4.1
Format settings                          : CABAC / 4 Ref Frames
Format settings, CABAC                   : Yes
Format settings, Reference frames        : 4 frames
Codec ID                                 : 27
Duration                                 : 44 min 38 s
Bit rate                                 : 30.4 Mb/s
Width                                    : 1 920 pixels
Height                                   : 1 080 pixels
Display aspect ratio                     : 16:9
Active Format Description                : Full frame 16:9 image
Frame rate                               : 25.000 FPS
Color space                              : YUV
Chroma subsampling                       : 4:2:2
Bit depth                                : 10 bits
Scan type                                : Interlaced
Scan type, store method                  : Separated fields
Scan order                               : Top Field First
Bits/(Pixel*Frame)                       : 0.586
Stream size                              : 9.47 GiB (94%)
Color range                              : Limited
Color primaries                          : BT.709
Transfer characteristics                 : BT.709
Matrix coefficients                      : BT.709

Audio
ID                                       : 257 (0x101)
Menu ID                                  : 1 (0x1)
Format                                   : MPEG Audio
Format version                           : Version 1
Format profile                           : Layer 2
Codec ID                                 : 3
Duration                                 : 44 min 38 s
Bit rate mode                            : Constant
Bit rate                                 : 384 kb/s
Channel(s)                               : 2 channels
Sampling rate                            : 48.0 kHz
Frame rate                               : 41.667 FPS (1152 SPF)
Compression mode                         : Lossy
Delay relative to video                  : 2 ms
Stream size                              : 123 MiB (1%)
Language                                 : one

</pre>
</div>
<div class="bbCodeBlock bbCodeVfcHH HiddenContent">
<div class="attribution type">Hidden Content:</div>
<blockquote>You must reply before you can see the hidden data contained here.</blockquote>
</div>
<div class="messageTextEndMarker">&nbsp;</div>
</blockquote>
</article>]]></description>
                <author><![CDATA[ilya2129]]></author>
                </item>

                
                <item>
                <title><![CDATA[【SD】Babylon Zoo - Spaceman (TV-Rip, 1996, Rock, UK)]]></title>
                <link><![CDATA[https://sharemania.us/threads/babylon-zoo-spaceman-tv-rip-1996-rock-uk.249016/]]></link>
                <description><![CDATA[<article>
<blockquote class="messageText SelectQuoteContainer ugc baseHtml">
Babylon Zoo - Spaceman (TV-Rip, 1996, Rock, UK)<br>
<br>
<img src="https://images2.imgbox.com/93/42/cqupWY3P_o.jpg" class="bbCodeImage LbImage" alt="[​IMG]" data-url="https://images2.imgbox.com/93/42/cqupWY3P_o.jpg" style=""> <br>
<br>
<span data-s9e-mediaembed="youtube" style="display:inline-block;width:100%;max-width:640px"><span style="display:block;overflow:hidden;position:relative;padding-bottom:56.25%"><iframe allowfullscreen="" loading="lazy" scrolling="no" style="background:url(https://i.ytimg.com/vi/XCbAEkfXSDE/hqdefault.jpg) 50% 50% / cover;border:0;height:100%;left:0;position:absolute;width:100%" src="https://www.youtube.com/embed/XCbAEkfXSDE"></iframe></span></span><br>
<br>
<div class="bbCodeBlock bbCodeVfcHH HiddenContent">
<div class="attribution type">Hidden Content:</div>
<blockquote>You must reply before you can see the hidden data contained here.</blockquote>
</div>Greets, 3rsin.
<div class="messageTextEndMarker">&nbsp;</div>
</blockquote>
</article>]]></description>
                <author><![CDATA[fritching]]></author>
                </item>

                
                <item>
                <title><![CDATA[【HD Live Performances】FEED - The National - Live @ Glastonbury 2024 FEED HDTV H264 1080i 422 MP2-ilya2129]]></title>
                <link><![CDATA[https://sharemania.us/threads/the-national-live-glastonbury-2024-feed-hdtv-h264-1080i-422-mp2-ilya2129.249021/]]></link>
                <description><![CDATA[<article>
<blockquote class="messageText SelectQuoteContainer ugc baseHtml">
<div style="text-align: center"><img src="https://i122.fastpic.org/big/2023/0623/b4/b37c6294354538a70aac338bdf3af5b4.png?r=1" class="bbCodeImage LbImage" alt="[​IMG]" data-url="https://i122.fastpic.org/big/2023/0623/b4/b37c6294354538a70aac338bdf3af5b4.png?r=1" style=""><br>
<br>
<a href="https://fastpic.org/view/123/2024/0707/_022b935966a169b26a08372b69ec0090.png.html" target="_blank" class="externalLink" rel="nofollow"><img src="https://i123.fastpic.org/thumb/2024/0707/90/_022b935966a169b26a08372b69ec0090.jpeg" class="bbCodeImage LbImage" alt="[​IMG]" data-url="https://i123.fastpic.org/thumb/2024/0707/90/_022b935966a169b26a08372b69ec0090.jpeg"></a> <a href="https://fastpic.org/view/123/2024/0707/_fa001546c04e89ec44435b6943335f14.png.html" target="_blank" class="externalLink" rel="nofollow"><img src="https://i123.fastpic.org/thumb/2024/0707/14/_fa001546c04e89ec44435b6943335f14.jpeg" class="bbCodeImage LbImage" alt="[​IMG]" data-url="https://i123.fastpic.org/thumb/2024/0707/14/_fa001546c04e89ec44435b6943335f14.jpeg"></a> <a href="https://fastpic.org/view/123/2024/0707/_cf76e52ac1f026472b48c007ece347e7.png.html" target="_blank" class="externalLink" rel="nofollow"><img src="https://i123.fastpic.org/thumb/2024/0707/e7/_cf76e52ac1f026472b48c007ece347e7.jpeg" class="bbCodeImage LbImage" alt="[​IMG]" data-url="https://i123.fastpic.org/thumb/2024/0707/e7/_cf76e52ac1f026472b48c007ece347e7.jpeg"></a><br>
<br>
<i><br>
Don't Swallow the Cap<br>
Eucalyptus<br>
Tropic Morning News<br>
Bloodbuzz Ohio<br>
The System Only Dreams in Total Darkness<br>
I Need My Girl<br>
Conversation 16<br>
Abel<br>
Alien<br>
Space Invader<br>
Day I Die<br>
Light Years<br>
Rylan<br>
England<br>
Graceless<br>
Fake Empire<br>
Mr. November<br>
Terrible Love<br>
About Today<br>
</i><br>
​</div><br>
<div class="bbCodeBlock bbCodeCode">
<div class="type">Code:</div>
<pre>General
ID                                       : 1 (0x1)
Complete name                            : C:\Recordings\Glasto 2024\The National - Live @ Glastonbury 2024 FEED HDTV H264 1080i 422 MP2-ilya2129.ts
Format                                   : MPEG-TS
File size                                : 19.8 GiB
Duration                                 : 1 h 32 min
Overall bit rate mode                    : Variable
Overall bit rate                         : 30.7 Mb/s
Frame rate                               : 25.000 FPS

Video
ID                                       : 256 (0x100)
Menu ID                                  : 1 (0x1)
Format                                   : AVC
Format/Info                              : Advanced Video Codec
Format profile                           : High 4:2:2@L4.1
Format settings                          : CABAC / 4 Ref Frames
Format settings, CABAC                   : Yes
Format settings, Reference frames        : 4 frames
Codec ID                                 : 27
Duration                                 : 1 h 32 min
Bit rate                                 : 28.8 Mb/s
Width                                    : 1 920 pixels
Height                                   : 1 080 pixels
Display aspect ratio                     : 16:9
Active Format Description                : Full frame 16:9 image
Frame rate                               : 25.000 FPS
Color space                              : YUV
Chroma subsampling                       : 4:2:2
Bit depth                                : 10 bits
Scan type                                : Interlaced
Scan type, store method                  : Separated fields
Scan order                               : Top Field First
Bits/(Pixel*Frame)                       : 0.555
Stream size                              : 18.6 GiB (94%)
Color range                              : Limited
Color primaries                          : BT.709
Transfer characteristics                 : BT.709
Matrix coefficients                      : BT.709

Audio
ID                                       : 257 (0x101)
Menu ID                                  : 1 (0x1)
Format                                   : MPEG Audio
Format version                           : Version 1
Format profile                           : Layer 2
Codec ID                                 : 3
Duration                                 : 1 h 32 min
Bit rate mode                            : Constant
Bit rate                                 : 384 kb/s
Channel(s)                               : 2 channels
Sampling rate                            : 48.0 kHz
Frame rate                               : 41.667 FPS (1152 SPF)
Compression mode                         : Lossy
Delay relative to video                  : 2 ms
Stream size                              : 254 MiB (1%)
Language                                 : one



</pre>
</div>
<div class="bbCodeBlock bbCodeVfcHH HiddenContent">
<div class="attribution type">Hidden Content:</div>
<blockquote>You must reply before you can see the hidden data contained here.</blockquote>
</div>
<div class="messageTextEndMarker">&nbsp;</div>
</blockquote>
</article>]]></description>
                <author><![CDATA[ilya2129]]></author>
                </item>

                
                <item>
                <title><![CDATA[【SD】Angel City Feat. Lara McAllen - Touch Me (DVD-Rip, 2004, Pop)]]></title>
                <link><![CDATA[https://sharemania.us/threads/angel-city-feat-lara-mcallen-touch-me-dvd-rip-2004-pop.249013/]]></link>
                <description><![CDATA[<article>
<blockquote class="messageText SelectQuoteContainer ugc baseHtml">
Angel City Feat. Lara McAllen - Touch Me (DVD-Rip, 2004, Pop)<br>
<br>
<img src="https://images2.imgbox.com/4b/f9/Sq6B0UPw_o.jpg" class="bbCodeImage LbImage" alt="[​IMG]" data-url="https://images2.imgbox.com/4b/f9/Sq6B0UPw_o.jpg" style=""> <br>
<br>
<span data-s9e-mediaembed="youtube" style="display:inline-block;width:100%;max-width:640px"><span style="display:block;overflow:hidden;position:relative;padding-bottom:56.25%"><iframe allowfullscreen="" loading="lazy" scrolling="no" style="background:url(https://i.ytimg.com/vi/Qd0As1RczGA/hqdefault.jpg) 50% 50% / cover;border:0;height:100%;left:0;position:absolute;width:100%" src="https://www.youtube.com/embed/Qd0As1RczGA"></iframe></span></span><br>
<br>
<div class="bbCodeBlock bbCodeVfcHH HiddenContent">
<div class="attribution type">Hidden Content:</div>
<blockquote>You must reply before you can see the hidden data contained here.</blockquote>
</div>Greets, 3rsin.
<div class="messageTextEndMarker">&nbsp;</div>
</blockquote>
</article>]]></description>
                <author><![CDATA[fritching]]></author>
                </item>

                </channel></rss>